<svg xmlns="http://www.w3.org/2000/svg" version="1.1" width="3000" height="1298">

    <style>
    line.col {
	stroke-width: 1;
	stroke:       black;
	stroke-dasharray: 2 5;
    }
    </style>


    <defs>
    <filter x="0" y="0" width="1" height="1" id="bgwhite">
    <feFlood flood-color="white"/>
    <feComposite in="SourceGraphic" operator="over" />
    </filter>
    </defs>

 <g>
  <line class="col" x1="100" y1="150" x2="100" y2="100%" />
  <line class="col" x1="150" y1="150" x2="150" y2="100%" />
  <line class="col" x1="200" y1="150" x2="200" y2="100%" />
  <line class="col" x1="250" y1="150" x2="250" y2="100%" />
  <line class="col" x1="300" y1="150" x2="300" y2="100%" />
  <line class="col" x1="350" y1="150" x2="350" y2="100%" />
  <line class="col" x1="400" y1="150" x2="400" y2="100%" />
  <line class="col" x1="450" y1="150" x2="450" y2="100%" />
  <line class="col" x1="500" y1="150" x2="500" y2="100%" />
  <line class="col" x1="550" y1="150" x2="550" y2="100%" />
  <line class="col" x1="600" y1="150" x2="600" y2="100%" />
  <line class="col" x1="650" y1="150" x2="650" y2="100%" />
  <line class="col" x1="700" y1="150" x2="700" y2="100%" />
  <line class="col" x1="750" y1="150" x2="750" y2="100%" />
  <line class="col" x1="800" y1="150" x2="800" y2="100%" />
  <line class="col" x1="850" y1="150" x2="850" y2="100%" />
  <line class="col" x1="900" y1="150" x2="900" y2="100%" />
  <line class="col" x1="950" y1="150" x2="950" y2="100%" />
  <line class="col" x1="1000" y1="150" x2="1000" y2="100%" />
  <line class="col" x1="1050" y1="150" x2="1050" y2="100%" />
  <line class="col" x1="1100" y1="150" x2="1100" y2="100%" />
  <line class="col" x1="1150" y1="150" x2="1150" y2="100%" />
  <line class="col" x1="1200" y1="150" x2="1200" y2="100%" />
  <line class="col" x1="1250" y1="150" x2="1250" y2="100%" />
  <line class="col" x1="1300" y1="150" x2="1300" y2="100%" />
  <line class="col" x1="1350" y1="150" x2="1350" y2="100%" />
  <line class="col" x1="1400" y1="150" x2="1400" y2="100%" />
  <path id="p1" d="M 80,200 120,200 100,205 z" fill="red" fill-opacity=".25" stroke="red">
	<set attributeName="stroke-width" to="2" begin="mouseover" end="mouseout"/>
	</path>
  <line x1="117" y1="200" x2="133" y2="200" stroke-width="1" stroke="#ccc" />
  <rect id="r2" x="130" y="200" width="40" height="29" fill="red" stroke="none" fill-opacity=".25" rx="5" ry="5">
	</rect>
  <line x1="167" y1="229" x2="183" y2="229" stroke-width="1" stroke="#ccc" />
  <rect id="r3" x="180" y="229" width="40" height="84" fill="red" stroke="none" fill-opacity=".25" rx="5" ry="5">
	</rect>
  <line x1="217" y1="313" x2="233" y2="313" stroke-width="1" stroke="#ccc" />
  <rect id="r4" x="230" y="313" width="40" height="15" fill="red" stroke="none" fill-opacity=".25" rx="5" ry="5">
	</rect>
  <line x1="267" y1="328" x2="283" y2="328" stroke-width="1" stroke="#ccc" />
  <rect id="r5" x="280" y="328" width="40" height="58" fill="red" stroke="none" fill-opacity=".25" rx="5" ry="5">
	</rect>
  <line x1="317" y1="387" x2="333" y2="387" stroke-width="1" stroke="#ccc" />
  <rect id="r6" x="330" y="387" width="40" height="19" fill="red" stroke="none" fill-opacity=".25" rx="5" ry="5">
	</rect>
  <line x1="367" y1="406" x2="383" y2="406" stroke-width="1" stroke="#ccc" />
  <rect id="r7" x="380" y="406" width="40" height="81" fill="red" stroke="none" fill-opacity=".25" rx="5" ry="5">
	</rect>
  <line x1="417" y1="487" x2="433" y2="487" stroke-width="1" stroke="#ccc" />
  <rect id="r8" x="430" y="487" width="40" height="17" fill="red" stroke="none" fill-opacity=".25" rx="5" ry="5">
	</rect>
  <line x1="467" y1="504" x2="483" y2="504" stroke-width="1" stroke="#ccc" />
  <rect id="r9" x="480" y="504" width="40" height="48" fill="red" stroke="none" fill-opacity=".25" rx="5" ry="5">
	</rect>
  <line x1="517" y1="553" x2="533" y2="553" stroke-width="1" stroke="#ccc" />
  <rect id="r10" x="530" y="553" width="40" height="15" fill="red" stroke="none" fill-opacity=".25" rx="5" ry="5">
	</rect>
  <line x1="517" y1="553" x2="533" y2="553" stroke-width="1" stroke="#ccc" />
  <rect id="r11" x="534" y="553" width="40" height="51" fill="red" stroke="none" fill-opacity=".25" rx="5" ry="5">
	</rect>
  <line x1="567" y1="568" x2="583" y2="568" stroke-width="1" stroke="#ccc" />
  <rect id="r12" x="580" y="568" width="40" height="85" fill="red" stroke="none" fill-opacity=".25" rx="5" ry="5">
	</rect>
  <line x1="567" y1="605" x2="583" y2="605" stroke-width="1" stroke="#ccc" />
  <rect id="r13" x="580" y="605" width="40" height="140" fill="red" stroke="none" fill-opacity=".25" rx="5" ry="5">
	</rect>
  <line x1="567" y1="568" x2="583" y2="568" stroke-width="1" stroke="#ccc" />
  <rect id="r14" x="584" y="568" width="40" height="203" fill="red" stroke="none" fill-opacity=".25" rx="5" ry="5">
	</rect>
  <line x1="567" y1="605" x2="583" y2="605" stroke-width="1" stroke="#ccc" />
  <rect id="r15" x="584" y="605" width="40" height="255" fill="red" stroke="none" fill-opacity=".25" rx="5" ry="5">
	</rect>
  <line x1="617" y1="771" x2="683" y2="771" stroke-width="1" stroke="#ccc" />
  <rect id="r16" x="680" y="771" width="40" height="111" fill="red" stroke="none" fill-opacity=".25" rx="5" ry="5">
	</rect>
  <line x1="617" y1="860" x2="683" y2="860" stroke-width="1" stroke="#ccc" />
  <rect id="r17" x="680" y="860" width="40" height="85" fill="red" stroke="none" fill-opacity=".25" rx="5" ry="5">
	</rect>
  <line x1="717" y1="882" x2="733" y2="882" stroke-width="1" stroke="#ccc" />
  <rect id="r18" x="730" y="882" width="40" height="120" fill="red" stroke="none" fill-opacity=".25" rx="5" ry="5">
	</rect>
  <line x1="767" y1="1003" x2="1133" y2="1003" stroke-width="1" stroke="#ccc" />
  <rect id="r19" x="1130" y="1003" width="40" height="33" fill="red" stroke="none" fill-opacity=".25" rx="5" ry="5">
	</rect>
  <line x1="767" y1="1003" x2="1133" y2="1003" stroke-width="1" stroke="#ccc" />
  <rect id="r20" x="1134" y="1003" width="40" height="43" fill="red" stroke="none" fill-opacity=".25" rx="5" ry="5">
	</rect>
  <line x1="1167" y1="1036" x2="1183" y2="1036" stroke-width="1" stroke="#ccc" />
  <rect id="r21" x="1180" y="1036" width="40" height="60" fill="red" stroke="none" fill-opacity=".25" rx="5" ry="5">
	</rect>
  <line x1="1167" y1="1046" x2="1183" y2="1046" stroke-width="1" stroke="#ccc" />
  <rect id="r22" x="1180" y="1046" width="40" height="106" fill="red" stroke="none" fill-opacity=".25" rx="5" ry="5">
	</rect>
  <line x1="1217" y1="1096" x2="1233" y2="1096" stroke-width="1" stroke="#ccc" />
  <rect id="r23" x="1230" y="1096" width="40" height="142" fill="red" stroke="none" fill-opacity=".25" rx="5" ry="5">
	</rect>
  <line x1="1267" y1="1239" x2="1283" y2="1239" stroke-width="1" stroke="#ccc" />
  <rect id="r24" x="1280" y="1239" width="40" height="4" fill="red" stroke="none" fill-opacity=".25" rx="5" ry="5">
	</rect>
  <line x1="1317" y1="1243" x2="1333" y2="1243" stroke-width="1" stroke="#ccc" />
  <rect id="r25" x="1330" y="1243" width="40" height="10" fill="red" stroke="none" fill-opacity=".25" rx="5" ry="5">
	</rect>
  <line x1="1367" y1="1253" x2="1383" y2="1253" stroke-width="1" stroke="#ccc" />
  <path id="p27" d="M 1384,1253 1416,1253 1400,1258 z" fill="red" fill-opacity=".25" stroke="red">
	<set attributeName="stroke-width" to="2" begin="mouseover" end="mouseout"/>
	</path>
  <line x1="1217" y1="1153" x2="1233" y2="1153" stroke-width="1" stroke="#ccc" />
  <path id="p29" d="M 1234,1153 1266,1153 1250,1158 z" fill="red" fill-opacity=".25" stroke="red">
	<set attributeName="stroke-width" to="2" begin="mouseover" end="mouseout"/>
	</path>
  <line x1="617" y1="745" x2="633" y2="745" stroke-width="1" stroke="#ccc" />
  <path id="p31" d="M 634,745 666,745 650,750 z" fill="red" fill-opacity=".25" stroke="red">
	<set attributeName="stroke-width" to="2" begin="mouseover" end="mouseout"/>
	</path>
  <line x1="717" y1="946" x2="783" y2="946" stroke-width="1" stroke="#ccc" />
  <path id="p33" d="M 784,946 816,946 800,951 z" fill="red" fill-opacity=".25" stroke="red">
	<set attributeName="stroke-width" to="2" begin="mouseover" end="mouseout"/>
	</path>
  <line x1="617" y1="654" x2="633" y2="654" stroke-width="1" stroke="#ccc" />
  <path id="p35" d="M 634,654 666,654 650,659 z" fill="red" fill-opacity=".25" stroke="red">
	<set attributeName="stroke-width" to="2" begin="mouseover" end="mouseout"/>
	</path>

  <rect id="fr2" x="130" y="200" width="40" height="29" fill="none" stroke="red" rx="5" ry="5">
	<set attributeName="stroke-width" to="3" begin="mouseover;r2.mouseover" end="mouseout;r2.mouseout"/>
	</rect>
  <rect id="fr3" x="180" y="229" width="40" height="84" fill="none" stroke="red" rx="5" ry="5">
	<set attributeName="stroke-width" to="3" begin="mouseover;r3.mouseover" end="mouseout;r3.mouseout"/>
	</rect>
  <rect id="fr4" x="230" y="313" width="40" height="15" fill="none" stroke="red" rx="5" ry="5">
	<set attributeName="stroke-width" to="3" begin="mouseover;r4.mouseover" end="mouseout;r4.mouseout"/>
	</rect>
  <rect id="fr5" x="280" y="328" width="40" height="58" fill="none" stroke="red" rx="5" ry="5">
	<set attributeName="stroke-width" to="3" begin="mouseover;r5.mouseover" end="mouseout;r5.mouseout"/>
	</rect>
  <rect id="fr6" x="330" y="387" width="40" height="19" fill="none" stroke="red" rx="5" ry="5">
	<set attributeName="stroke-width" to="3" begin="mouseover;r6.mouseover" end="mouseout;r6.mouseout"/>
	</rect>
  <rect id="fr7" x="380" y="406" width="40" height="81" fill="none" stroke="red" rx="5" ry="5">
	<set attributeName="stroke-width" to="3" begin="mouseover;r7.mouseover" end="mouseout;r7.mouseout"/>
	</rect>
  <rect id="fr8" x="430" y="487" width="40" height="17" fill="none" stroke="red" rx="5" ry="5">
	<set attributeName="stroke-width" to="3" begin="mouseover;r8.mouseover" end="mouseout;r8.mouseout"/>
	</rect>
  <rect id="fr9" x="480" y="504" width="40" height="48" fill="none" stroke="red" rx="5" ry="5">
	<set attributeName="stroke-width" to="3" begin="mouseover;r9.mouseover" end="mouseout;r9.mouseout"/>
	</rect>
  <rect id="fr10" x="530" y="553" width="40" height="15" fill="none" stroke="red" rx="5" ry="5">
	<set attributeName="stroke-width" to="3" begin="mouseover;r10.mouseover" end="mouseout;r10.mouseout"/>
	</rect>
  <rect id="fr11" x="534" y="553" width="40" height="51" fill="none" stroke="red" rx="5" ry="5">
	<set attributeName="stroke-width" to="3" begin="mouseover;r11.mouseover" end="mouseout;r11.mouseout"/>
	</rect>
  <rect id="fr12" x="580" y="568" width="40" height="85" fill="none" stroke="red" rx="5" ry="5">
	<set attributeName="stroke-width" to="3" begin="mouseover;r12.mouseover" end="mouseout;r12.mouseout"/>
	</rect>
  <rect id="fr13" x="580" y="605" width="40" height="140" fill="none" stroke="red" rx="5" ry="5">
	<set attributeName="stroke-width" to="3" begin="mouseover;r13.mouseover" end="mouseout;r13.mouseout"/>
	</rect>
  <rect id="fr14" x="584" y="568" width="40" height="203" fill="none" stroke="red" rx="5" ry="5">
	<set attributeName="stroke-width" to="3" begin="mouseover;r14.mouseover" end="mouseout;r14.mouseout"/>
	</rect>
  <rect id="fr15" x="584" y="605" width="40" height="255" fill="none" stroke="red" rx="5" ry="5">
	<set attributeName="stroke-width" to="3" begin="mouseover;r15.mouseover" end="mouseout;r15.mouseout"/>
	</rect>
  <rect id="fr16" x="680" y="771" width="40" height="111" fill="none" stroke="red" rx="5" ry="5">
	<set attributeName="stroke-width" to="3" begin="mouseover;r16.mouseover" end="mouseout;r16.mouseout"/>
	</rect>
  <rect id="fr17" x="680" y="860" width="40" height="85" fill="none" stroke="red" rx="5" ry="5">
	<set attributeName="stroke-width" to="3" begin="mouseover;r17.mouseover" end="mouseout;r17.mouseout"/>
	</rect>
  <rect id="fr18" x="730" y="882" width="40" height="120" fill="none" stroke="red" rx="5" ry="5">
	<set attributeName="stroke-width" to="3" begin="mouseover;r18.mouseover" end="mouseout;r18.mouseout"/>
	</rect>
  <rect id="fr19" x="1130" y="1003" width="40" height="33" fill="none" stroke="red" rx="5" ry="5">
	<set attributeName="stroke-width" to="3" begin="mouseover;r19.mouseover" end="mouseout;r19.mouseout"/>
	</rect>
  <rect id="fr20" x="1134" y="1003" width="40" height="43" fill="none" stroke="red" rx="5" ry="5">
	<set attributeName="stroke-width" to="3" begin="mouseover;r20.mouseover" end="mouseout;r20.mouseout"/>
	</rect>
  <rect id="fr21" x="1180" y="1036" width="40" height="60" fill="none" stroke="red" rx="5" ry="5">
	<set attributeName="stroke-width" to="3" begin="mouseover;r21.mouseover" end="mouseout;r21.mouseout"/>
	</rect>
  <rect id="fr22" x="1180" y="1046" width="40" height="106" fill="none" stroke="red" rx="5" ry="5">
	<set attributeName="stroke-width" to="3" begin="mouseover;r22.mouseover" end="mouseout;r22.mouseout"/>
	</rect>
  <rect id="fr23" x="1230" y="1096" width="40" height="142" fill="none" stroke="red" rx="5" ry="5">
	<set attributeName="stroke-width" to="3" begin="mouseover;r23.mouseover" end="mouseout;r23.mouseout"/>
	</rect>
  <rect id="fr24" x="1280" y="1239" width="40" height="4" fill="none" stroke="red" rx="5" ry="5">
	<set attributeName="stroke-width" to="3" begin="mouseover;r24.mouseover" end="mouseout;r24.mouseout"/>
	</rect>
  <rect id="fr25" x="1330" y="1243" width="40" height="10" fill="none" stroke="red" rx="5" ry="5">
	<set attributeName="stroke-width" to="3" begin="mouseover;r25.mouseover" end="mouseout;r25.mouseout"/>
	</rect>

  <text transform="rotate(-90,100,140)" x="100" y="140" text-anchor="start" dominant-baseline="middle">ip.entry</text>
  <text transform="rotate(-90,150,140)" x="150" y="140" text-anchor="start" dominant-baseline="middle">sdap.mapping</text>
  <text transform="rotate(-90,200,140)" x="200" y="140" text-anchor="start" dominant-baseline="middle">sdap.header</text>
  <text transform="rotate(-90,250,140)" x="250" y="140" text-anchor="start" dominant-baseline="middle">pdcp.txbuf</text>
  <text transform="rotate(-90,300,140)" x="300" y="140" text-anchor="start" dominant-baseline="middle">pdcp.rohc</text>
  <text transform="rotate(-90,350,140)" x="350" y="140" text-anchor="start" dominant-baseline="middle">pdcp.intcipher</text>
  <text transform="rotate(-90,400,140)" x="400" y="140" text-anchor="start" dominant-baseline="middle">pdcp.header</text>
  <text transform="rotate(-90,450,140)" x="450" y="140" text-anchor="start" dominant-baseline="middle">pdcp.routing</text>
  <text transform="rotate(-90,500,140)" x="500" y="140" text-anchor="start" dominant-baseline="middle">rlc.am.txbuf</text>
  <text transform="rotate(-90,550,140)" x="550" y="140" text-anchor="start" dominant-baseline="middle">rlc.am.seg</text>
  <text transform="rotate(-90,600,140)" x="600" y="140" text-anchor="start" dominant-baseline="middle">rlc.am.header</text>
  <text transform="rotate(-90,650,140)" x="650" y="140" text-anchor="start" dominant-baseline="middle">rlc.am.retbuf</text>
  <text transform="rotate(-90,700,140)" x="700" y="140" text-anchor="start" dominant-baseline="middle">mac.mux</text>
  <text transform="rotate(-90,750,140)" x="750" y="140" text-anchor="start" dominant-baseline="middle">mac.harq.0</text>
  <text transform="rotate(-90,800,140)" x="800" y="140" text-anchor="start" dominant-baseline="middle">mac.harq.1</text>
  <text transform="rotate(-90,850,140)" x="850" y="140" text-anchor="start" dominant-baseline="middle">mac.harq.2</text>
  <text transform="rotate(-90,900,140)" x="900" y="140" text-anchor="start" dominant-baseline="middle">mac.harq.3</text>
  <text transform="rotate(-90,950,140)" x="950" y="140" text-anchor="start" dominant-baseline="middle">mac.harq.4</text>
  <text transform="rotate(-90,1000,140)" x="1000" y="140" text-anchor="start" dominant-baseline="middle">mac.harq.5</text>
  <text transform="rotate(-90,1050,140)" x="1050" y="140" text-anchor="start" dominant-baseline="middle">mac.harq.6</text>
  <text transform="rotate(-90,1100,140)" x="1100" y="140" text-anchor="start" dominant-baseline="middle">mac.harq.7</text>
  <text transform="rotate(-90,1150,140)" x="1150" y="140" text-anchor="start" dominant-baseline="middle">phy.crc</text>
  <text transform="rotate(-90,1200,140)" x="1200" y="140" text-anchor="start" dominant-baseline="middle">phy.cbseg</text>
  <text transform="rotate(-90,1250,140)" x="1250" y="140" text-anchor="start" dominant-baseline="middle">phy.msc</text>
  <text transform="rotate(-90,1300,140)" x="1300" y="140" text-anchor="start" dominant-baseline="middle">phy.mod</text>
  <text transform="rotate(-90,1350,140)" x="1350" y="140" text-anchor="start" dominant-baseline="middle">phy.map</text>
  <text transform="rotate(-90,1400,140)" x="1400" y="140" text-anchor="start" dominant-baseline="middle">phy.ant</text>
  <text x="100" y="195" text-anchor="middle" dominant-baseline="text-bottom" font-size="10" filter="url(#bgwhite)">ip0</text>
  <text x="150" y="195" text-anchor="start" dominant-baseline="text-bottom" fill="black" font-size="10" filter="" visibility="hidden">
	<set attributeName="visibility" to="visible" begin="r2.mouseover;fr2.mouseover" end="r2.mouseout;fr2.mouseout"/>
	<set attributeName="filter" to="url(#bgwhite)"  begin="r2.mouseover;fr2.mouseover" end="r2.mouseout;fr2.mouseout"/>
	<tspan x="150" dy="-3em">ID:  ip0.qfi1</tspan><tspan x="150" dy="1em">LAY: sdap.mapping</tspan><tspan x="150" dy="1em">DUR: 0.000291</tspan><tspan x="150" dy="1em">RTS:  0.000000</tspan></text>
  <text x="200" y="224" text-anchor="start" dominant-baseline="text-bottom" fill="black" font-size="10" filter="" visibility="hidden">
	<set attributeName="visibility" to="visible" begin="r3.mouseover;fr3.mouseover" end="r3.mouseout;fr3.mouseout"/>
	<set attributeName="filter" to="url(#bgwhite)"  begin="r3.mouseover;fr3.mouseover" end="r3.mouseout;fr3.mouseout"/>
	<tspan x="200" dy="-3em">ID:  ip0.qfi1.drb2</tspan><tspan x="200" dy="1em">LAY: sdap.header</tspan><tspan x="200" dy="1em">DUR: 0.000845</tspan><tspan x="200" dy="1em">RTS:  0.000291</tspan></text>
  <text x="250" y="308" text-anchor="start" dominant-baseline="text-bottom" fill="black" font-size="10" filter="" visibility="hidden">
	<set attributeName="visibility" to="visible" begin="r4.mouseover;fr4.mouseover" end="r4.mouseout;fr4.mouseout"/>
	<set attributeName="filter" to="url(#bgwhite)"  begin="r4.mouseover;fr4.mouseover" end="r4.mouseout;fr4.mouseout"/>
	<tspan x="250" dy="-3em">ID:  ip0.qfi1.drb2.pdcp0</tspan><tspan x="250" dy="1em">LAY: pdcp.txbuf</tspan><tspan x="250" dy="1em">DUR: 0.000152</tspan><tspan x="250" dy="1em">RTS:  0.001136</tspan></text>
  <text x="300" y="323" text-anchor="start" dominant-baseline="text-bottom" fill="black" font-size="10" filter="" visibility="hidden">
	<set attributeName="visibility" to="visible" begin="r5.mouseover;fr5.mouseover" end="r5.mouseout;fr5.mouseout"/>
	<set attributeName="filter" to="url(#bgwhite)"  begin="r5.mouseover;fr5.mouseover" end="r5.mouseout;fr5.mouseout"/>
	<tspan x="300" dy="-3em">ID:  ip0.qfi1.drb2.pdcp0</tspan><tspan x="300" dy="1em">LAY: pdcp.rohc</tspan><tspan x="300" dy="1em">DUR: 0.000585</tspan><tspan x="300" dy="1em">RTS:  0.001288</tspan></text>
  <text x="350" y="382" text-anchor="start" dominant-baseline="text-bottom" fill="black" font-size="10" filter="" visibility="hidden">
	<set attributeName="visibility" to="visible" begin="r6.mouseover;fr6.mouseover" end="r6.mouseout;fr6.mouseout"/>
	<set attributeName="filter" to="url(#bgwhite)"  begin="r6.mouseover;fr6.mouseover" end="r6.mouseout;fr6.mouseout"/>
	<tspan x="350" dy="-3em">ID:  ip0.qfi1.drb2.pdcp0</tspan><tspan x="350" dy="1em">LAY: pdcp.intcipher</tspan><tspan x="350" dy="1em">DUR: 0.000193</tspan><tspan x="350" dy="1em">RTS:  0.001873</tspan></text>
  <text x="400" y="401" text-anchor="start" dominant-baseline="text-bottom" fill="black" font-size="10" filter="" visibility="hidden">
	<set attributeName="visibility" to="visible" begin="r7.mouseover;fr7.mouseover" end="r7.mouseout;fr7.mouseout"/>
	<set attributeName="filter" to="url(#bgwhite)"  begin="r7.mouseover;fr7.mouseover" end="r7.mouseout;fr7.mouseout"/>
	<tspan x="400" dy="-3em">ID:  ip0.qfi1.drb2.pdcp0</tspan><tspan x="400" dy="1em">LAY: pdcp.header</tspan><tspan x="400" dy="1em">DUR: 0.000810</tspan><tspan x="400" dy="1em">RTS:  0.002066</tspan></text>
  <text x="450" y="482" text-anchor="start" dominant-baseline="text-bottom" fill="black" font-size="10" filter="" visibility="hidden">
	<set attributeName="visibility" to="visible" begin="r8.mouseover;fr8.mouseover" end="r8.mouseout;fr8.mouseout"/>
	<set attributeName="filter" to="url(#bgwhite)"  begin="r8.mouseover;fr8.mouseover" end="r8.mouseout;fr8.mouseout"/>
	<tspan x="450" dy="-3em">ID:  ip0.qfi1.drb2.pdcp0</tspan><tspan x="450" dy="1em">LAY: pdcp.routing</tspan><tspan x="450" dy="1em">DUR: 0.000173</tspan><tspan x="450" dy="1em">RTS:  0.002876</tspan></text>
  <text x="500" y="499" text-anchor="start" dominant-baseline="text-bottom" fill="black" font-size="10" filter="" visibility="hidden">
	<set attributeName="visibility" to="visible" begin="r9.mouseover;fr9.mouseover" end="r9.mouseout;fr9.mouseout"/>
	<set attributeName="filter" to="url(#bgwhite)"  begin="r9.mouseover;fr9.mouseover" end="r9.mouseout;fr9.mouseout"/>
	<tspan x="500" dy="-3em">ID:  ip0.qfi1.drb2.pdcp0.rlc1</tspan><tspan x="500" dy="1em">LAY: rlc.am.txbuf</tspan><tspan x="500" dy="1em">DUR: 0.000484</tspan><tspan x="500" dy="1em">RTS:  0.003049</tspan></text>
  <text x="550" y="548" text-anchor="start" dominant-baseline="text-bottom" fill="black" font-size="10" filter="" visibility="hidden">
	<set attributeName="visibility" to="visible" begin="r10.mouseover;fr10.mouseover" end="r10.mouseout;fr10.mouseout"/>
	<set attributeName="filter" to="url(#bgwhite)"  begin="r10.mouseover;fr10.mouseover" end="r10.mouseout;fr10.mouseout"/>
	<tspan x="550" dy="-3em">ID:  ip0.qfi1.drb2.pdcp0.rlc1.roff0</tspan><tspan x="550" dy="1em">LAY: rlc.am.seg</tspan><tspan x="550" dy="1em">DUR: 0.000151</tspan><tspan x="550" dy="1em">RTS:  0.003533</tspan></text>
  <text x="554" y="548" text-anchor="start" dominant-baseline="text-bottom" fill="black" font-size="10" filter="" visibility="hidden">
	<set attributeName="visibility" to="visible" begin="r11.mouseover;fr11.mouseover" end="r11.mouseout;fr11.mouseout"/>
	<set attributeName="filter" to="url(#bgwhite)"  begin="r11.mouseover;fr11.mouseover" end="r11.mouseout;fr11.mouseout"/>
	<tspan x="554" dy="-3em">ID:  ip0.qfi1.drb2.pdcp0.rlc1.roff1</tspan><tspan x="554" dy="1em">LAY: rlc.am.seg</tspan><tspan x="554" dy="1em">DUR: 0.000517</tspan><tspan x="554" dy="1em">RTS:  0.003533</tspan></text>
  <text x="600" y="563" text-anchor="start" dominant-baseline="text-bottom" fill="black" font-size="10" filter="" visibility="hidden">
	<set attributeName="visibility" to="visible" begin="r12.mouseover;fr12.mouseover" end="r12.mouseout;fr12.mouseout"/>
	<set attributeName="filter" to="url(#bgwhite)"  begin="r12.mouseover;fr12.mouseover" end="r12.mouseout;fr12.mouseout"/>
	<tspan x="600" dy="-3em">ID:  ip0.qfi1.drb2.pdcp0.rlc1.roff0</tspan><tspan x="600" dy="1em">LAY: rlc.am.header</tspan><tspan x="600" dy="1em">DUR: 0.000857</tspan><tspan x="600" dy="1em">RTS:  0.003684</tspan></text>
  <text x="600" y="600" text-anchor="start" dominant-baseline="text-bottom" fill="black" font-size="10" filter="" visibility="hidden">
	<set attributeName="visibility" to="visible" begin="r13.mouseover;fr13.mouseover" end="r13.mouseout;fr13.mouseout"/>
	<set attributeName="filter" to="url(#bgwhite)"  begin="r13.mouseover;fr13.mouseover" end="r13.mouseout;fr13.mouseout"/>
	<tspan x="600" dy="-3em">ID:  ip0.qfi1.drb2.pdcp0.rlc1.roff1</tspan><tspan x="600" dy="1em">LAY: rlc.am.header</tspan><tspan x="600" dy="1em">DUR: 0.001401</tspan><tspan x="600" dy="1em">RTS:  0.004050</tspan></text>
  <text x="604" y="563" text-anchor="start" dominant-baseline="text-bottom" fill="black" font-size="10" filter="" visibility="hidden">
	<set attributeName="visibility" to="visible" begin="r14.mouseover;fr14.mouseover" end="r14.mouseout;fr14.mouseout"/>
	<set attributeName="filter" to="url(#bgwhite)"  begin="r14.mouseover;fr14.mouseover" end="r14.mouseout;fr14.mouseout"/>
	<tspan x="604" dy="-3em">ID:  ip0.qfi1.drb2.pdcp0.rlc1.roff0.lc32</tspan><tspan x="604" dy="1em">LAY: rlc.am.header</tspan><tspan x="604" dy="1em">DUR: 0.002032</tspan><tspan x="604" dy="1em">RTS:  0.003684</tspan></text>
  <text x="604" y="600" text-anchor="start" dominant-baseline="text-bottom" fill="black" font-size="10" filter="" visibility="hidden">
	<set attributeName="visibility" to="visible" begin="r15.mouseover;fr15.mouseover" end="r15.mouseout;fr15.mouseout"/>
	<set attributeName="filter" to="url(#bgwhite)"  begin="r15.mouseover;fr15.mouseover" end="r15.mouseout;fr15.mouseout"/>
	<tspan x="604" dy="-3em">ID:  ip0.qfi1.drb2.pdcp0.rlc1.roff1.lc32</tspan><tspan x="604" dy="1em">LAY: rlc.am.header</tspan><tspan x="604" dy="1em">DUR: 0.002559</tspan><tspan x="604" dy="1em">RTS:  0.004050</tspan></text>
  <text x="700" y="766" text-anchor="start" dominant-baseline="text-bottom" fill="black" font-size="10" filter="" visibility="hidden">
	<set attributeName="visibility" to="visible" begin="r16.mouseover;fr16.mouseover" end="r16.mouseout;fr16.mouseout"/>
	<set attributeName="filter" to="url(#bgwhite)"  begin="r16.mouseover;fr16.mouseover" end="r16.mouseout;fr16.mouseout"/>
	<tspan x="700" dy="-3em">ID:  ip0.qfi1.drb2.pdcp0.rlc1.roff0.lc32.tb0</tspan><tspan x="700" dy="1em">LAY: mac.mux</tspan><tspan x="700" dy="1em">DUR: 0.001113</tspan><tspan x="700" dy="1em">RTS:  0.005716</tspan></text>
  <text x="700" y="855" text-anchor="start" dominant-baseline="text-bottom" fill="black" font-size="10" filter="" visibility="hidden">
	<set attributeName="visibility" to="visible" begin="r17.mouseover;fr17.mouseover" end="r17.mouseout;fr17.mouseout"/>
	<set attributeName="filter" to="url(#bgwhite)"  begin="r17.mouseover;fr17.mouseover" end="r17.mouseout;fr17.mouseout"/>
	<tspan x="700" dy="-3em">ID:  ip0.qfi1.drb2.pdcp0.rlc1.roff1.lc32.tb1</tspan><tspan x="700" dy="1em">LAY: mac.mux</tspan><tspan x="700" dy="1em">DUR: 0.000851</tspan><tspan x="700" dy="1em">RTS:  0.006609</tspan></text>
  <text x="750" y="877" text-anchor="start" dominant-baseline="text-bottom" fill="black" font-size="10" filter="" visibility="hidden">
	<set attributeName="visibility" to="visible" begin="r18.mouseover;fr18.mouseover" end="r18.mouseout;fr18.mouseout"/>
	<set attributeName="filter" to="url(#bgwhite)"  begin="r18.mouseover;fr18.mouseover" end="r18.mouseout;fr18.mouseout"/>
	<tspan x="750" dy="-3em">ID:  ip0.qfi1.drb2.pdcp0.rlc1.roff0.lc32.tb0</tspan><tspan x="750" dy="1em">LAY: mac.harq.0</tspan><tspan x="750" dy="1em">DUR: 0.001202</tspan><tspan x="750" dy="1em">RTS:  0.006829</tspan></text>
  <text x="1150" y="998" text-anchor="start" dominant-baseline="text-bottom" fill="black" font-size="10" filter="" visibility="hidden">
	<set attributeName="visibility" to="visible" begin="r19.mouseover;fr19.mouseover" end="r19.mouseout;fr19.mouseout"/>
	<set attributeName="filter" to="url(#bgwhite)"  begin="r19.mouseover;fr19.mouseover" end="r19.mouseout;fr19.mouseout"/>
	<tspan x="1150" dy="-3em">ID:  ip0.qfi1.drb2.pdcp0.rlc1.roff0.lc32.tb0.phy0</tspan><tspan x="1150" dy="1em">LAY: phy.crc</tspan><tspan x="1150" dy="1em">DUR: 0.000332</tspan><tspan x="1150" dy="1em">RTS:  0.008031</tspan></text>
  <text x="1154" y="998" text-anchor="start" dominant-baseline="text-bottom" fill="black" font-size="10" filter="" visibility="hidden">
	<set attributeName="visibility" to="visible" begin="r20.mouseover;fr20.mouseover" end="r20.mouseout;fr20.mouseout"/>
	<set attributeName="filter" to="url(#bgwhite)"  begin="r20.mouseover;fr20.mouseover" end="r20.mouseout;fr20.mouseout"/>
	<tspan x="1154" dy="-3em">ID:  ip0.qfi1.drb2.pdcp0.rlc1.roff0.lc32.tb0.phy1</tspan><tspan x="1154" dy="1em">LAY: phy.crc</tspan><tspan x="1154" dy="1em">DUR: 0.000436</tspan><tspan x="1154" dy="1em">RTS:  0.008031</tspan></text>
  <text x="1200" y="1031" text-anchor="start" dominant-baseline="text-bottom" fill="black" font-size="10" filter="" visibility="hidden">
	<set attributeName="visibility" to="visible" begin="r21.mouseover;fr21.mouseover" end="r21.mouseout;fr21.mouseout"/>
	<set attributeName="filter" to="url(#bgwhite)"  begin="r21.mouseover;fr21.mouseover" end="r21.mouseout;fr21.mouseout"/>
	<tspan x="1200" dy="-3em">ID:  ip0.qfi1.drb2.pdcp0.rlc1.roff0.lc32.tb0.phy0</tspan><tspan x="1200" dy="1em">LAY: phy.cbseg</tspan><tspan x="1200" dy="1em">DUR: 0.000606</tspan><tspan x="1200" dy="1em">RTS:  0.008363</tspan></text>
  <text x="1200" y="1041" text-anchor="start" dominant-baseline="text-bottom" fill="black" font-size="10" filter="" visibility="hidden">
	<set attributeName="visibility" to="visible" begin="r22.mouseover;fr22.mouseover" end="r22.mouseout;fr22.mouseout"/>
	<set attributeName="filter" to="url(#bgwhite)"  begin="r22.mouseover;fr22.mouseover" end="r22.mouseout;fr22.mouseout"/>
	<tspan x="1200" dy="-3em">ID:  ip0.qfi1.drb2.pdcp0.rlc1.roff0.lc32.tb0.phy1</tspan><tspan x="1200" dy="1em">LAY: phy.cbseg</tspan><tspan x="1200" dy="1em">DUR: 0.001069</tspan><tspan x="1200" dy="1em">RTS:  0.008467</tspan></text>
  <text x="1250" y="1091" text-anchor="start" dominant-baseline="text-bottom" fill="black" font-size="10" filter="" visibility="hidden">
	<set attributeName="visibility" to="visible" begin="r23.mouseover;fr23.mouseover" end="r23.mouseout;fr23.mouseout"/>
	<set attributeName="filter" to="url(#bgwhite)"  begin="r23.mouseover;fr23.mouseover" end="r23.mouseout;fr23.mouseout"/>
	<tspan x="1250" dy="-3em">ID:  ip0.qfi1.drb2.pdcp0.rlc1.roff0.lc32.tb0</tspan><tspan x="1250" dy="1em">LAY: phy.msc</tspan><tspan x="1250" dy="1em">DUR: 0.001421</tspan><tspan x="1250" dy="1em">RTS:  0.008969</tspan></text>
  <text x="1300" y="1234" text-anchor="start" dominant-baseline="text-bottom" fill="black" font-size="10" filter="" visibility="hidden">
	<set attributeName="visibility" to="visible" begin="r24.mouseover;fr24.mouseover" end="r24.mouseout;fr24.mouseout"/>
	<set attributeName="filter" to="url(#bgwhite)"  begin="r24.mouseover;fr24.mouseover" end="r24.mouseout;fr24.mouseout"/>
	<tspan x="1300" dy="-3em">ID:  ip0.qfi1.drb2.pdcp0.rlc1.roff0.lc32.tb0</tspan><tspan x="1300" dy="1em">LAY: phy.mod</tspan><tspan x="1300" dy="1em">DUR: 0.000040</tspan><tspan x="1300" dy="1em">RTS:  0.010390</tspan></text>
  <text x="1350" y="1238" text-anchor="start" dominant-baseline="text-bottom" fill="black" font-size="10" filter="" visibility="hidden">
	<set attributeName="visibility" to="visible" begin="r25.mouseover;fr25.mouseover" end="r25.mouseout;fr25.mouseout"/>
	<set attributeName="filter" to="url(#bgwhite)"  begin="r25.mouseover;fr25.mouseover" end="r25.mouseout;fr25.mouseout"/>
	<tspan x="1350" dy="-3em">ID:  ip0.qfi1.drb2.pdcp0.rlc1.roff0.lc32.tb0</tspan><tspan x="1350" dy="1em">LAY: phy.map</tspan><tspan x="1350" dy="1em">DUR: 0.000108</tspan><tspan x="1350" dy="1em">RTS:  0.010430</tspan></text>
  <text x="1400" y="1248" text-anchor="middle" dominant-baseline="text-bottom" font-size="10" filter="" visibility="hidden">
	    <set attributeName="visibility" to="visible" begin="p27.mouseover" end="p27.mouseout"/>
	    <set attributeName="filter" to="url(#bgwhite)" begin="p27.mouseover" end="p27.mouseout"/> 
	    <tspan x="1400" dy="-2em">ID:  ip0.qfi1.drb2.pdcp0.rlc1.roff0.lc32.tb0</tspan><tspan x="1400" dy="1em">LAY: phy.ant</tspan><tspan x="1400" dy="1em">RTS:  0.010538</tspan></text>
  <text x="1250" y="1148" text-anchor="middle" dominant-baseline="text-bottom" font-size="10" filter="" visibility="hidden">
	    <set attributeName="visibility" to="visible" begin="p29.mouseover" end="p29.mouseout"/>
	    <set attributeName="filter" to="url(#bgwhite)" begin="p29.mouseover" end="p29.mouseout"/> 
	    <tspan x="1250" dy="-2em">ID:  ip0.qfi1.drb2.pdcp0.rlc1.roff0.lc32.tb0.phy1</tspan><tspan x="1250" dy="1em">LAY: phy.msc</tspan><tspan x="1250" dy="1em">RTS:  0.009536</tspan></text>
  <text x="650" y="740" text-anchor="middle" dominant-baseline="text-bottom" font-size="10" filter="" visibility="hidden">
	    <set attributeName="visibility" to="visible" begin="p31.mouseover" end="p31.mouseout"/>
	    <set attributeName="filter" to="url(#bgwhite)" begin="p31.mouseover" end="p31.mouseout"/> 
	    <tspan x="650" dy="-2em">ID:  ip0.qfi1.drb2.pdcp0.rlc1.roff1</tspan><tspan x="650" dy="1em">LAY: rlc.am.retbuf</tspan><tspan x="650" dy="1em">RTS:  0.005451</tspan></text>
  <text x="800" y="941" text-anchor="middle" dominant-baseline="text-bottom" font-size="10" filter="" visibility="hidden">
	    <set attributeName="visibility" to="visible" begin="p33.mouseover" end="p33.mouseout"/>
	    <set attributeName="filter" to="url(#bgwhite)" begin="p33.mouseover" end="p33.mouseout"/> 
	    <tspan x="800" dy="-2em">ID:  ip0.qfi1.drb2.pdcp0.rlc1.roff1.lc32.tb1</tspan><tspan x="800" dy="1em">LAY: mac.harq.1</tspan><tspan x="800" dy="1em">RTS:  0.007460</tspan></text>
  <text x="650" y="649" text-anchor="middle" dominant-baseline="text-bottom" font-size="10" filter="" visibility="hidden">
	    <set attributeName="visibility" to="visible" begin="p35.mouseover" end="p35.mouseout"/>
	    <set attributeName="filter" to="url(#bgwhite)" begin="p35.mouseover" end="p35.mouseout"/> 
	    <tspan x="650" dy="-2em">ID:  ip0.qfi1.drb2.pdcp0.rlc1.roff0</tspan><tspan x="650" dy="1em">LAY: rlc.am.retbuf</tspan><tspan x="650" dy="1em">RTS:  0.004541</tspan></text>

 </g>
</svg>
